<?xml version="1.0" encoding="utf-8"?>
<!-- Generator: Adobe Illustrator 25.4.1, SVG Export Plug-In . SVG Version: 6.00 Build 0)  -->
<svg version="1.1" id="Layer_1" xmlns="http://www.w3.org/2000/svg" xmlns:xlink="http://www.w3.org/1999/xlink" x="0px" y="0px"
	 viewBox="0 0 549.7 282.7" style="enable-background:new 0 0 549.7 282.7;" xml:space="preserve">
<style type="text/css">
	.st0{fill:#3DBAE8;}
	.st1{fill:#2126AD;}
	.st2{fill:#FC8542;}
	.st3{fill:#FA361C;}
</style>
<g>
	<polygon class="st0" points="78.7,110.2 78.7,168 157.3,112.9 157.3,55.1 	"/>
	<polygon class="st1" points="157.3,55.1 157.3,55.1 78.7,0 78.7,67.8 109,89 	"/>
	<polygon class="st2" points="0,177.4 24.4,166 48.7,211.5 48.7,89.2 0,55.1 	"/>
	<polygon class="st3" points="0,55.1 0.2,55.2 48.7,89.2 78.7,67.8 78.7,0 	"/>
	<g>
		<path d="M223.9,80.3c2-1.5,2.9-3.8,2.9-6.7c0-2.9-1-5-2.9-6.4c-1.9-1.4-4.5-2.1-7.8-2.1h-8.8v17.6h8.7
			C219.3,82.6,221.9,81.8,223.9,80.3 M228.5,57.5c3.2,1.6,5.7,3.7,7.5,6.5c1.7,2.8,2.6,5.9,2.6,9.3c0,3.5-1,6.8-2.9,9.7
			c-1.9,2.9-4.5,5.2-7.8,6.8c-3.3,1.7-7,2.5-11,2.5h-9.5v20.4h-11.8V55.2H217C221.4,55.2,225.2,56,228.5,57.5"/>
		<path d="M269.3,90.5c-0.5,1-1.5,1.9-2.8,2.7c-1.3,0.8-3.2,1.4-5.8,2c-2.6,0.5-4.5,1.2-5.7,2.1c-1.2,0.9-1.8,2-1.8,3.4
			c0,1.4,0.6,2.6,1.7,3.6c1.1,0.9,2.8,1.4,4.9,1.4c2.8,0,5.1-1,6.8-2.9c1.7-1.9,2.6-5.1,2.6-9.5V90.5z M281,112.7h-11.3
			c-0.3-1.3-0.4-2.6-0.4-3.7v-2.3h-0.1c-2.6,4.7-6.8,7.1-12.7,7.1c-2.9,0-5.5-0.5-7.7-1.6c-2.2-1-3.9-2.5-5.2-4.4
			c-1.2-1.9-1.8-4.1-1.8-6.5c0-3.4,1.1-6.1,3.2-8c2.1-1.9,4.5-3.2,7-3.8c2.5-0.7,5.4-1.2,8.8-1.7c2.1-0.3,3.7-0.6,4.8-0.8
			c1.1-0.3,1.9-0.8,2.5-1.4c0.6-0.6,0.9-1.5,0.9-2.7c0-1.6-0.6-2.8-1.9-3.6c-1.3-0.9-3-1.3-5.2-1.3c-1.9,0-3.6,0.5-4.9,1.6
			c-1.3,1-2.3,2.5-2.8,4.3h-10.6c0.4-2.5,1.4-4.8,2.9-6.9c1.5-2.1,3.6-3.9,6.2-5.2c2.6-1.3,5.6-2,9.1-2c6,0,10.6,1.6,13.7,4.7
			c3.1,3.1,4.6,7.6,4.6,13.4V102C280.2,106.8,280.5,110.3,281,112.7"/>
	</g>
	<rect x="289.2" y="55.2" width="11.4" height="57.5"/>
	<g>
		<path d="M335.3,90.5c-0.5,1-1.5,1.9-2.8,2.7c-1.3,0.8-3.2,1.4-5.8,2c-2.6,0.5-4.5,1.2-5.7,2.1c-1.2,0.9-1.8,2-1.8,3.4
			c0,1.4,0.6,2.6,1.7,3.6c1.1,0.9,2.8,1.4,4.9,1.4c2.8,0,5.1-1,6.8-2.9c1.7-1.9,2.6-5.1,2.6-9.5V90.5z M347,112.7h-11.3
			c-0.3-1.3-0.4-2.6-0.4-3.7v-2.3h-0.1c-2.6,4.7-6.8,7.1-12.7,7.1c-2.9,0-5.5-0.5-7.7-1.6c-2.2-1-3.9-2.5-5.2-4.4
			c-1.2-1.9-1.8-4.1-1.8-6.5c0-3.4,1.1-6.1,3.2-8c2.1-1.9,4.5-3.2,7-3.8c2.5-0.7,5.4-1.2,8.8-1.7c2.1-0.3,3.7-0.6,4.8-0.8
			c1.1-0.3,1.9-0.8,2.5-1.4c0.6-0.6,0.9-1.5,0.9-2.7c0-1.6-0.6-2.8-1.9-3.6c-1.3-0.9-3-1.3-5.2-1.3c-1.9,0-3.6,0.5-4.9,1.6
			c-1.3,1-2.3,2.5-2.8,4.3h-10.6c0.4-2.5,1.4-4.8,2.9-6.9c1.5-2.1,3.6-3.9,6.2-5.2c2.6-1.3,5.6-2,9.1-2c6,0,10.6,1.6,13.7,4.7
			c3.1,3.1,4.6,7.6,4.6,13.4V102C346.2,106.8,346.5,110.3,347,112.7"/>
		<path d="M391.4,106.8c-1.9,2.4-4.2,4.1-7,5.4c-2.8,1.2-5.9,1.8-9.2,1.8c-4.1,0-7.8-0.9-11.3-2.7c-3.4-1.8-6.2-4.3-8.2-7.7
			c-2-3.4-3.1-7.3-3.1-11.8c0-4.5,1-8.4,3.1-11.8c2-3.3,4.8-5.9,8.2-7.6c3.4-1.7,7.2-2.6,11.3-2.6c3.3,0,6.4,0.6,9.2,1.8
			c2.8,1.2,5.1,3,7,5.2c1.8,2.3,3,5,3.5,8.1h-10.6c-0.6-2.1-1.8-3.7-3.4-4.7c-1.6-1-3.5-1.6-5.7-1.6c-2.3,0-4.2,0.6-5.9,1.7
			c-1.7,1.2-3,2.7-3.9,4.8c-0.9,2-1.4,4.3-1.4,6.7c0,2.5,0.5,4.7,1.4,6.7c0.9,2,2.2,3.6,3.9,4.8c1.7,1.2,3.7,1.7,5.9,1.7
			c2.3,0,4.2-0.6,5.9-1.7c1.7-1.1,2.8-2.8,3.4-5.1H395C394.4,101.6,393.2,104.5,391.4,106.8"/>
		<path d="M431.4,87.7c-0.3-2.6-1.3-4.9-3-6.7c-1.7-1.8-4-2.7-7-2.7c-2.8,0-5.2,0.9-7.1,2.6c-1.9,1.7-3.1,4-3.5,6.8H431.4z
			 M442.2,95.1h-31.6c0.3,2,0.9,3.7,1.9,5.2c1,1.5,2.2,2.7,3.7,3.5c1.5,0.8,3.2,1.2,5.1,1.2c2,0,3.8-0.4,5.4-1.1
			c1.6-0.8,2.7-1.9,3.5-3.4h11.4c-0.9,2.7-2.2,5.1-4.1,7.2c-1.9,2-4.2,3.6-7,4.8c-2.8,1.1-5.8,1.7-9.2,1.7c-4.2,0-7.9-0.9-11.2-2.8
			c-3.3-1.9-5.8-4.5-7.7-7.9c-1.8-3.4-2.7-7.3-2.7-11.6c0-4.2,0.9-8,2.8-11.3c1.9-3.4,4.5-6,7.8-7.9c3.3-1.9,7-2.9,11.2-2.9
			c4.5,0,8.2,1,11.4,3c3.1,2,5.4,4.8,7,8.2c1.6,3.5,2.4,7.4,2.4,11.8C442.3,93.7,442.3,94.5,442.2,95.1"/>
		<path d="M243.3,181.9c-2.3,2.7-5.2,4.8-8.8,6.4c-3.6,1.6-7.7,2.4-12.2,2.4c-6.1,0-11.3-1.3-15.7-4c-4.4-2.7-7.8-6.2-10.1-10.8
			c-2.3-4.5-3.5-9.5-3.5-15c0-5.5,1.2-10.5,3.5-15c2.3-4.5,5.7-8.1,10.1-10.8c4.4-2.7,9.6-4,15.7-4c6.7,0,12.2,1.6,16.4,4.8
			c4.2,3.2,7.3,7.4,9.1,12.8h-6.8c-1.6-3.8-3.9-6.7-6.9-8.8c-3-2-6.9-3.1-11.8-3.1c-4.8,0-8.9,1.1-12.2,3.3
			c-3.4,2.2-5.9,5.1-7.7,8.8c-1.7,3.7-2.6,7.6-2.6,11.9c0,4.3,0.8,8.3,2.5,11.9c1.7,3.7,4.2,6.6,7.6,8.8c3.4,2.2,7.5,3.3,12.3,3.3
			c4.9,0,8.9-1.1,12.1-3.3c3.2-2.2,5.4-5.1,6.6-8.7h6.8C247.1,176.2,245.5,179.2,243.3,181.9"/>
		<path d="M282.7,182.9c2.1-1.5,3.8-3.4,5-5.9c1.2-2.5,1.8-5.2,1.8-8.1c0-3-0.6-5.7-1.8-8.2c-1.2-2.5-2.9-4.4-5-5.9
			c-2.1-1.4-4.6-2.2-7.4-2.2c-2.7,0-5.2,0.7-7.4,2.2c-2.2,1.5-3.9,3.4-5,5.9c-1.2,2.5-1.8,5.2-1.8,8.2c0,3,0.6,5.7,1.8,8.1
			c1.2,2.5,2.9,4.4,5,5.9c2.2,1.4,4.6,2.2,7.4,2.2C278,185.1,280.5,184.4,282.7,182.9 M264.4,187.7c-3.1-1.9-5.5-4.5-7.2-7.8
			c-1.7-3.3-2.5-6.9-2.5-11c0-4,0.8-7.7,2.5-11c1.7-3.3,4.1-5.9,7.2-7.8c3.1-1.9,6.7-2.9,10.9-2.9c4.1,0,7.8,1,10.9,2.9
			c3.1,1.9,5.6,4.5,7.3,7.8c1.7,3.3,2.5,7,2.5,11c0,4-0.8,7.7-2.5,11c-1.7,3.3-4.1,5.9-7.3,7.8c-3.1,1.9-6.8,2.9-10.9,2.9
			C271.1,190.5,267.5,189.6,264.4,187.7"/>
	</g>
	<rect x="303.8" y="132.2" width="6.4" height="57.5"/>
	<rect x="320.8" y="132.2" width="6.4" height="57.5"/>
	<g>
		<path d="M348.3,154.1c-2,1.1-3.5,2.6-4.7,4.6c-1.2,2-1.9,4.2-2.3,6.8h26.5c-0.4-4.1-1.6-7.3-3.7-9.6c-2.1-2.3-5.1-3.5-9-3.5
			C352.6,152.5,350.3,153,348.3,154.1 M363.1,183.2c2.1-1.3,3.6-3.3,4.4-5.9h6.4c-1.2,4.2-3.4,7.5-6.6,9.8
			c-3.2,2.3-7.2,3.4-11.8,3.4c-4.1,0-7.7-0.9-10.7-2.8c-3.1-1.9-5.4-4.4-7.1-7.7c-1.7-3.3-2.5-7-2.5-11.2c0-4.1,0.8-7.8,2.5-11
			c1.7-3.3,4.1-5.8,7.1-7.7c3-1.9,6.5-2.8,10.4-2.8c4.5,0,8.1,1,10.9,3.1c2.8,2,4.9,4.7,6.2,8c1.3,3.3,2,6.9,2.1,10.8l0.1,1.6h-33.1
			c0.2,3,0.8,5.5,2.1,7.7c1.2,2.2,2.8,3.9,4.9,5c2,1.2,4.4,1.7,7,1.7C358.3,185.2,360.9,184.5,363.1,183.2"/>
		<path d="M413,187.1c-3.1,2.3-7,3.5-11.9,3.5c-4.2,0-7.9-0.9-11.1-2.8c-3.2-1.9-5.7-4.5-7.4-7.7c-1.7-3.3-2.6-7-2.6-11
			c0-4.1,0.9-7.8,2.6-11.1c1.7-3.3,4.2-5.9,7.4-7.8c3.2-1.9,6.9-2.8,11.1-2.8c4.9,0,8.9,1.2,11.9,3.5c3.1,2.4,5.1,5.5,6,9.4h-6.5
			c-0.9-2.3-2.3-4.2-4.1-5.6c-1.9-1.4-4.3-2.1-7.5-2.1c-2.8,0-5.4,0.7-7.6,2.2c-2.2,1.4-3.9,3.4-5.1,5.9c-1.2,2.5-1.8,5.3-1.8,8.3
			s0.6,5.8,1.8,8.3c1.2,2.5,2.9,4.4,5.1,5.8c2.2,1.4,4.7,2.1,7.6,2.1c6,0,9.9-2.7,11.8-8h6.5C418.2,181.5,416.1,184.7,413,187.1"/>
		<path d="M443.8,184.4v5.3h-3.5c-3.7,0-6.5-0.9-8.3-2.8c-1.8-1.9-2.7-4.4-2.7-7.7v-25.9h-6.3v-5.3h6.3v-9.8l6.3-2.9v12.7h8v5.3h-8
			v25.5c0,1.8,0.5,3.1,1.4,4.1c0.9,0.9,2.2,1.4,3.8,1.4H443.8z"/>
	</g>
	<path d="M451.6,132.2h6.9v8.1h-6.9V132.2z M451.5,148.1h6.4v41.6h-6.4V148.1z"/>
	<g>
		<path d="M494.4,182.9c2.1-1.5,3.8-3.4,5-5.9c1.2-2.5,1.8-5.2,1.8-8.1c0-3-0.6-5.7-1.8-8.2c-1.2-2.5-2.9-4.4-5-5.9
			c-2.1-1.4-4.6-2.2-7.4-2.2c-2.7,0-5.2,0.7-7.4,2.2c-2.2,1.5-3.9,3.4-5,5.9c-1.2,2.5-1.8,5.2-1.8,8.2c0,3,0.6,5.7,1.8,8.1
			c1.2,2.5,2.9,4.4,5,5.9c2.2,1.4,4.6,2.2,7.4,2.2C489.7,185.1,492.2,184.4,494.4,182.9 M476.1,187.7c-3.1-1.9-5.5-4.5-7.2-7.8
			c-1.7-3.3-2.5-6.9-2.5-11c0-4,0.8-7.7,2.5-11c1.7-3.3,4.1-5.9,7.2-7.8c3.1-1.9,6.7-2.9,10.9-2.9c4.1,0,7.8,1,10.9,2.9
			c3.1,1.9,5.6,4.5,7.3,7.8c1.7,3.3,2.5,7,2.5,11c0,4-0.8,7.7-2.5,11c-1.7,3.3-4.1,5.9-7.3,7.8c-3.1,1.9-6.8,2.9-10.9,2.9
			C482.8,190.5,479.2,189.6,476.1,187.7"/>
		<path d="M522,148.1v7.8c1.2-2.6,2.8-4.7,4.9-6.2c2.1-1.6,4.7-2.4,7.7-2.4c5,0,8.8,1.4,11.3,4.2c2.5,2.8,3.8,6.6,3.8,11.5v26.7
			h-6.4v-26.2c0-3.8-0.8-6.6-2.4-8.3c-1.6-1.7-3.9-2.6-6.9-2.6c-2.1,0-4.1,0.6-5.9,1.7c-1.8,1.2-3.2,3-4.4,5.4
			c-1.1,2.4-1.7,5.5-1.7,9.1v20.8h-6.4v-41.6H522z"/>
	</g>
	<polygon points="196.1,209.2 207.3,209.3 224.3,258.7 224.4,258.7 241.3,209.2 252.6,209.2 252.6,266.7 245.8,266.7 245.8,216.8 
		245.7,216.8 228.3,266.7 220.5,266.7 203,216.8 202.8,216.8 202.8,266.7 196.1,266.7 	"/>
	<g>
		<path d="M283.9,260.7c2-1.1,3.6-2.8,4.8-5c1.2-2.2,1.8-5,1.8-8.3v-6c-0.5,1.5-1.7,2.8-3.5,3.8c-1.8,1-4.7,1.9-8.7,2.5
			c-3.4,0.6-6,1.5-7.8,2.7c-1.7,1.2-2.6,2.8-2.6,4.9c0,1.4,0.4,2.6,1.2,3.7c0.8,1,1.9,1.9,3.3,2.5c1.4,0.6,3,0.9,4.9,0.9
			C279.7,262.4,281.9,261.8,283.9,260.7 M290.5,260.5v-1.8h-0.1c-0.8,2.3-2.3,4.4-4.6,6.2c-2.2,1.8-5.4,2.7-9.5,2.7
			c-3.2,0-5.9-0.6-8.1-1.7c-2.2-1.2-3.9-2.7-5-4.6c-1.1-1.9-1.7-3.9-1.7-6c0-3,0.9-5.4,2.8-7.1c1.9-1.7,4.1-3,6.5-3.7
			c2.5-0.7,5.4-1.4,8.9-1.9l1.9-0.3c2.1-0.4,3.8-0.8,5-1.3c1.2-0.5,2.1-1.1,2.7-1.9c0.6-0.8,0.9-1.7,0.9-2.9c0-2.1-0.9-3.7-2.7-4.9
			c-1.8-1.2-4.2-1.8-7.3-1.8c-2.6,0-4.9,0.7-6.7,2.1c-1.9,1.4-3,3.4-3.6,5.8h-6.4c0.4-2.2,1.2-4.3,2.5-6.4c1.3-2,3.2-3.7,5.5-5
			c2.4-1.3,5.2-2,8.5-2c11,0,16.4,5.2,16.4,15.5v18.5c0,2.8,0.2,5.6,0.6,8.5h-6.8C290.5,265.3,290.5,263.3,290.5,260.5"/>
		<path d="M313.6,225.1v7.8c1.2-2.6,2.8-4.7,4.9-6.2c2.1-1.6,4.7-2.4,7.7-2.4c5,0,8.8,1.4,11.3,4.2c2.5,2.8,3.8,6.6,3.8,11.5v26.7
			h-6.4v-26.2c0-3.8-0.8-6.6-2.4-8.3c-1.6-1.7-3.9-2.6-6.9-2.6c-2.1,0-4.1,0.6-5.9,1.7c-1.8,1.2-3.2,3-4.4,5.4
			c-1.1,2.4-1.7,5.5-1.7,9.1v20.8h-6.4v-41.6H313.6z"/>
		<path d="M371.6,260.7c2-1.1,3.6-2.8,4.8-5c1.2-2.2,1.8-5,1.8-8.3v-6c-0.5,1.5-1.7,2.8-3.5,3.8c-1.8,1-4.7,1.9-8.7,2.5
			c-3.4,0.6-6,1.5-7.8,2.7c-1.7,1.2-2.6,2.8-2.6,4.9c0,1.4,0.4,2.6,1.2,3.7c0.8,1,1.9,1.9,3.3,2.5s3,0.9,4.9,0.9
			C367.4,262.4,369.6,261.8,371.6,260.7 M378.2,260.5v-1.8h-0.1c-0.8,2.3-2.3,4.4-4.6,6.2c-2.2,1.8-5.4,2.7-9.5,2.7
			c-3.2,0-5.9-0.6-8.1-1.7c-2.2-1.2-3.9-2.7-5-4.6c-1.1-1.9-1.7-3.9-1.7-6c0-3,0.9-5.4,2.8-7.1c1.9-1.7,4.1-3,6.5-3.7
			c2.5-0.7,5.4-1.4,8.9-1.9l1.9-0.3c2.1-0.4,3.8-0.8,5-1.3c1.2-0.5,2.1-1.1,2.7-1.9c0.6-0.8,0.9-1.7,0.9-2.9c0-2.1-0.9-3.7-2.7-4.9
			c-1.8-1.2-4.2-1.8-7.3-1.8c-2.6,0-4.9,0.7-6.7,2.1c-1.9,1.4-3,3.4-3.6,5.8h-6.4c0.4-2.2,1.2-4.3,2.5-6.4c1.3-2,3.2-3.7,5.5-5
			c2.4-1.3,5.2-2,8.5-2c11,0,16.4,5.2,16.4,15.5v18.5c0,2.8,0.2,5.6,0.6,8.5h-6.8C378.2,265.3,378.2,263.3,378.2,260.5"/>
		<path d="M400.3,254c1,2.5,2.5,4.4,4.6,5.9c2,1.4,4.6,2.2,7.6,2.2c3.2,0,5.9-0.8,7.9-2.5c2.1-1.6,3.5-3.7,4.4-6.2
			c0.9-2.5,1.3-5,1.3-7.6c0-2.6-0.5-5.1-1.6-7.6c-1-2.5-2.6-4.6-4.7-6.2c-2.1-1.6-4.6-2.4-7.4-2.4c-2.9,0-5.4,0.7-7.5,2.2
			c-2.1,1.5-3.6,3.4-4.7,5.9c-1,2.4-1.6,5.1-1.6,8.1C398.7,248.8,399.2,251.5,400.3,254 M432.2,263.9c0,3.8-0.8,7.1-2.5,10
			c-1.6,2.8-3.9,5-6.8,6.6c-2.9,1.5-6.1,2.3-9.7,2.3c-3.4,0-6.5-0.6-9.3-1.7c-2.7-1.1-5-2.8-6.6-4.9c-1.7-2.1-2.7-4.6-3-7.5h6.5
			c0.4,3,1.7,5.1,3.8,6.5c2.1,1.4,5,2.1,8.6,2.1c3.9,0,6.9-1.1,9.2-3.4c2.3-2.3,3.4-5.6,3.4-10.2v-5.4h-0.1c-1.1,2.8-2.8,5.1-5,6.7
			c-2.3,1.6-5.4,2.5-9.2,2.5c-3.9,0-7.3-1-10.2-2.9c-2.9-1.9-5.1-4.5-6.6-7.8c-1.5-3.3-2.3-7-2.3-11c0-4.1,0.8-7.8,2.3-11
			c1.5-3.3,3.7-5.9,6.6-7.7c2.9-1.9,6.3-2.8,10.2-2.8c3.8,0,6.8,0.8,9.2,2.5c2.4,1.7,4.1,3.7,5,6.2h0.1v-7.9h6.4V263.9z"/>
		<path d="M453.4,231.1c-2,1.1-3.5,2.6-4.7,4.6c-1.2,2-1.9,4.2-2.3,6.8h26.5c-0.4-4.1-1.6-7.3-3.7-9.6c-2.1-2.3-5.1-3.5-9-3.5
			C457.6,229.5,455.4,230,453.4,231.1 M468.1,260.2c2.1-1.3,3.6-3.3,4.4-5.9h6.4c-1.2,4.2-3.4,7.5-6.6,9.8
			c-3.2,2.3-7.2,3.4-11.8,3.4c-4.1,0-7.7-0.9-10.7-2.8c-3.1-1.9-5.4-4.4-7.1-7.7c-1.7-3.3-2.5-7-2.5-11.2c0-4.1,0.8-7.8,2.5-11
			c1.7-3.3,4.1-5.8,7.1-7.7c3-1.9,6.5-2.8,10.4-2.8c4.5,0,8.1,1,10.9,3.1c2.8,2,4.9,4.7,6.2,8c1.3,3.3,2,6.9,2.1,10.8l0.1,1.6h-33.1
			c0.2,3,0.8,5.5,2.1,7.7c1.2,2.2,2.8,3.9,4.9,5s4.4,1.7,7,1.7C463.3,262.2,465.9,261.5,468.1,260.2"/>
		<path d="M498.7,227c2.1-1.4,4.7-2.1,8-2.1v6c-0.5,0-1.1,0.1-1.8,0.2c-0.7,0.1-1.3,0.2-1.9,0.4c-1.8,0.5-3.3,1.2-4.6,2.2
			c-1.3,1-2.3,2.5-3.1,4.6c-0.8,2.1-1.2,4.8-1.2,8.3v20.1h-6.4v-41.6h6.4v8.3C495.1,230.5,496.6,228.3,498.7,227"/>
	</g>
</g>
</svg>
